<?xml version="1.0" encoding="utf-8"?>
<!-- Generator: Adobe Illustrator 21.1.0, SVG Export Plug-In . SVG Version: 6.00 Build 0)  -->
<svg version="1.1" id="Layer_1" xmlns="http://www.w3.org/2000/svg" xmlns:xlink="http://www.w3.org/1999/xlink" x="0px" y="0px"
	 viewBox="0 0 153 40" style="enable-background:new 0 0 153 40;" xml:space="preserve">
<style type="text/css">
	.st0{clip-path:url(#SVGID_2_);}
	.st1{fill:#FF7F00;}
</style>
<g>
	<defs>
		<rect id="SVGID_1_" width="153" height="40"/>
	</defs>
	<clipPath id="SVGID_2_">
		<use xlink:href="#SVGID_1_"  style="overflow:visible;"/>
	</clipPath>
	<g class="st0">
		<path class="st1" d="M10.8,0h18.5c1.4,0,2.8,0.3,4.1,0.8s2.5,1.3,3.5,2.3c1,1,1.8,2.2,2.3,3.5c0.5,1.3,0.8,2.7,0.8,4.1v18.4
			c0,2.9-1.1,5.6-3.2,7.6c-2,2-4.8,3.2-7.6,3.2H10.8c-2.9,0-5.6-1.1-7.6-3.2c-2-2-3.2-4.8-3.2-7.6V10.8C0,9.4,0.3,8,0.8,6.7
			s1.3-2.5,2.3-3.5c1-1,2.2-1.8,3.5-2.3S9.4,0,10.8,0z M9.5,17.1c-1.1,1.1-2.5,2.6-2.2,3.1h0c0.3,0.4,1.6-0.3,2.4-0.7l0.3-0.1
			c3.7-1.8,7.4-3.8,10.9-6.1c5.6-3.6,7-5.3,6.2-6.5c-1-1.4-4.1,0.1-8.3,2.9C15.5,11.8,12.4,14.3,9.5,17.1z M11.5,24.7
			C10,25.7,9,26.6,9.2,27h0c0.2,0.3,1,0.1,2-0.2c0.3-0.1,0.5-0.1,0.8-0.2c3.7-1,7.3-2.2,10.9-3.7c3-1.2,5.2-2.7,4.5-4.1
			c-0.6-1.2-2.9-0.8-6.3,0.6C17.6,20.9,13.5,23.5,11.5,24.7z M15.7,33.3c4.5-0.4,9-1.1,13.4-2.1h0c3.3-0.8,4.9-1.8,4.6-3
			c-0.4-1.3-3.7-0.9-7.4-0.1c-4,0.8-8.2,2.1-10.6,2.8c-1.8,0.6-4.2,1.6-4.1,2.1C11.7,33.5,13.4,33.4,15.7,33.3z M100.4,14.1
			c0.7-0.3,1.4-0.4,2.1-0.4c0.7,0,1.4,0.1,2.1,0.4c0.7,0.3,1.3,0.7,1.8,1.2c1,1.2,1.5,2.7,1.4,4.2v8.9h-3.8V20c0-0.4,0-0.8-0.2-1.1
			c-0.1-0.4-0.3-0.7-0.6-1c-0.3-0.3-0.6-0.5-0.9-0.6c-0.3-0.1-0.7-0.2-1.1-0.2c-0.4,0-0.8,0.1-1.1,0.2c-0.4,0.1-0.7,0.4-0.9,0.6
			c-0.3,0.3-0.5,0.6-0.6,1c-0.1,0.4-0.2,0.8-0.2,1.1v8.4h-3.8v-20h3.8v7l0.2-0.2C99.1,14.7,99.7,14.3,100.4,14.1L100.4,14.1z
			 M88.2,8.5h-3.8V14h-2.3v3.2h2.3v5.8c0,1.8,0.5,3.1,1.5,4s2.4,1.4,4.3,1.4h2.2v-3.1H91c-1,0-1.7-0.1-2.1-0.4
			c-0.2-0.2-0.4-0.5-0.5-0.8c-0.1-0.3-0.2-0.7-0.1-1v-5.9h4.1V14h-4.1C88.2,14,88.2,8.5,88.2,8.5z M72.6,14.1
			c0.7-0.3,1.5-0.4,2.3-0.4c0.7,0,1.5,0.1,2.1,0.4s1.3,0.7,1.8,1.2c1,1.2,1.5,2.7,1.4,4.2v8.9h-3.8V20c0-0.4,0-0.8-0.2-1.1
			c-0.1-0.4-0.3-0.7-0.6-1c-0.3-0.3-0.6-0.5-0.9-0.6c-0.3-0.1-0.7-0.2-1.1-0.2c-0.4,0-0.8,0.1-1.1,0.2c-0.4,0.1-0.7,0.4-0.9,0.6
			c-0.3,0.3-0.5,0.6-0.6,1c-0.1,0.4-0.2,0.8-0.2,1.1v8.4H67V14h3.5v1.5l0.2-0.2C71.2,14.8,71.8,14.4,72.6,14.1L72.6,14.1z
			 M58.1,13.7h0.2c0.9,0,1.8,0.1,2.6,0.5c0.8,0.3,1.6,0.8,2.2,1.5c0.6,0.6,1.1,1.4,1.4,2.2c0.3,0.8,0.5,1.7,0.5,2.6
			c0,0.7-0.1,1.4-0.2,2.1H54.5l0,0.1c0.2,0.9,0.7,1.7,1.5,2.2c0.8,0.5,1.8,0.8,2.7,0.8c1.5,0,2.9-0.5,4-1.4l1.6,2.5
			c-1.6,1.4-3.6,2.1-5.7,2.1h-0.2c-1,0-2-0.2-3-0.5c-0.9-0.4-1.8-0.9-2.5-1.6c-0.7-0.7-1.3-1.5-1.7-2.4c-0.4-0.9-0.6-1.9-0.5-2.9
			c0-1,0.2-2,0.5-2.9c0.4-0.9,0.9-1.7,1.6-2.4c0.7-0.7,1.5-1.3,2.4-1.6C56.1,13.9,57.1,13.7,58.1,13.7L58.1,13.7z M54.5,19.8l0,0.1
			h6.8v-0.1c0-0.4-0.1-0.8-0.2-1.2c-0.2-0.4-0.4-0.7-0.7-1c-0.6-0.6-1.5-0.9-2.3-0.8c-0.8,0-1.6,0.3-2.3,0.8
			C55.1,18.1,54.7,18.9,54.5,19.8L54.5,19.8z M119.6,22.4c0,0.4,0,0.8-0.2,1.1c-0.1,0.4-0.3,0.7-0.6,1c-0.3,0.3-0.6,0.5-0.9,0.6
			c-0.3,0.1-0.7,0.2-1.1,0.2c-0.4,0-0.8,0-1.1-0.2s-0.7-0.4-0.9-0.6c-0.3-0.3-0.5-0.6-0.6-1c-0.1-0.4-0.2-0.7-0.2-1.1V14h-3.8v8.1
			c0,0.9,0.1,1.8,0.4,2.6c0.3,0.8,0.8,1.6,1.4,2.2s1.4,1.2,2.2,1.5c0.8,0.3,1.7,0.5,2.6,0.5c0.9,0,1.8-0.2,2.6-0.5
			c0.8-0.4,1.6-0.9,2.2-1.5c0.6-0.6,1.1-1.4,1.4-2.2c0.3-0.8,0.5-1.7,0.4-2.6V14h-3.8C119.6,14,119.6,22.4,119.6,22.4z M130.7,19.3
			l1.4,0.6c1.1,0.4,2.2,1.1,3.1,1.9c0.6,0.7,1,1.6,0.9,2.5c0,0.6-0.1,1.3-0.4,1.9c-0.3,0.6-0.7,1.1-1.2,1.5c-1.2,0.8-2.6,1.3-4,1.2
			c-2.5,0-4.5-0.9-5.9-2.7l1.9-2.3c1.2,1.3,2.6,1.9,4.1,1.9c0.5,0,1-0.1,1.4-0.3c0.2-0.1,0.3-0.2,0.4-0.4c0.1-0.2,0.1-0.4,0.1-0.6
			c0-0.1,0-0.3-0.1-0.4s-0.2-0.3-0.3-0.3c-0.4-0.3-0.8-0.5-1.2-0.6l-1.6-0.6c-1.1-0.4-2.1-1-3-1.9c-0.6-0.7-0.9-1.6-0.9-2.5
			c0-0.6,0.1-1.2,0.3-1.7c0.2-0.5,0.6-1,1.1-1.4c1.1-0.8,2.4-1.2,3.8-1.1c1,0,1.9,0.1,2.8,0.5c0.9,0.4,1.7,0.9,2.3,1.6l-1.9,2.3
			c-0.9-0.9-2.1-1.3-3.3-1.3c-1.1,0-1.7,0.4-1.7,1.1c0,0.1,0,0.3,0.1,0.4c0.1,0.1,0.2,0.2,0.3,0.3C129.8,18.9,130.2,19.1,130.7,19.3
			L130.7,19.3z M152.3,20.4c0-0.9-0.1-1.8-0.5-2.6c-0.3-0.8-0.8-1.6-1.4-2.2c-0.6-0.6-1.4-1.1-2.2-1.5s-1.7-0.5-2.6-0.4h-0.2
			c-1,0-1.9,0.2-2.8,0.6c-0.9,0.4-1.7,0.9-2.4,1.6c-0.7,0.7-1.2,1.5-1.6,2.4s-0.5,1.9-0.5,2.9c0,1,0.2,2,0.5,2.9
			c0.4,0.9,1,1.8,1.7,2.4c0.7,0.7,1.6,1.3,2.5,1.6c0.9,0.4,1.9,0.6,2.9,0.5h0.2c2.1,0,4.1-0.8,5.7-2.1l-1.6-2.5
			c-1.2,0.9-2.6,1.4-4,1.4c-1,0-1.9-0.2-2.7-0.8c-0.7-0.5-1.3-1.3-1.5-2.2l0-0.1h10.3C152.3,21.8,152.3,21.1,152.3,20.4z
			 M141.8,19.9l0-0.1c0.2-0.9,0.6-1.6,1.3-2.2c0.6-0.5,1.4-0.8,2.3-0.8c0.8,0,1.7,0.3,2.3,0.8c0.3,0.3,0.5,0.6,0.7,1
			c0.2,0.4,0.2,0.8,0.2,1.2v0.1H141.8L141.8,19.9z"/>
	</g>
</g>
</svg>
