<svg xmlns="http://www.w3.org/2000/svg" width="152" height="57" fill="none" viewBox="0 0 152 57">
    <path fill="#484E57" d="M77.13 27.403c4.161-6.552 2.074-7.559 1.862-7.438-4.05 2.293-7.133 9.194-6.874 11.492.358 3.165 2.801-.576 5.011-4.054zm15.766-6.012c-.754 1.352-1.24 2.838-1.433 4.376-.107.768-.23 4.107-.203 4.56.042.738.136 1.47.28 2.195.098.361.715 1.66-1.265 1.935-1.165.16-1.142-2.77-1.165-3.25-.044-1.021.124-4.612.232-5.145.114-.545-.113.032-.328.39-.493.83-1.068 1.953-1.756 3.06-.904 1.454-2.92 4.919-5.668 4.712-1.029-.078-2.075-.21-2.672-3.091-.23-1.104-.14-2.555-.117-3.427-.028-.18-.004-.385-.154-.301-.973 2.283-4.135 9.01-7.708 7.498-1.654-.698-2.47-2.845-.643-7.037 1.78-4.086 6.268-9.153 8.056-9.494 1.594-.304 1.76.503 1.76.503.145-.298 1.139-.263 1.356.164.29.572.484.67.29 2.177-.11.87-.913 6.305-.774 8.173.064.875.213 3.031 1.098 3.135 1.547.186 3.42-3.12 3.633-3.465.417-.675 3.753-6.296 4.163-7.117.442-.885.722-1.53 1.007-2.094.285-.563 1.145-.626 1.894-.112.749.513.374 1.22.117 1.655zM22.3 24.143c-1.961.212-5.538 4.978-6.274 6.67-.754 1.728-1.026 3.394-.132 4.09 1.85 1.443 3.764-1.004 4.327-1.573.348-.35 2.782-3.019 3.394-5.729.405-1.79.592-3.663-1.314-3.458zm1.023 21.151c-.136.244-.275.485-.418.723-1.445 2.412-3.34 4.563-5.691 6.114-3.184 2.1-6.175 2.906-9.516 2.866-1.942-.023-3.816-.339-5.414-1.36-1.309-.837-1.496-2.146-1.1-3.01.552-1.203 2.273-1.086 3.005-.396 1.829 1.723 2.92 2.392 5.27 2.277 1.938-.111 3.825-.669 5.514-1.63 9.723-5.706 9.634-15.964 10.03-22.146.04-.376-.162-.102-.231.102-.47 1.315-1.05 2.588-1.736 3.803-.997 1.81-2.407 3.356-4.114 4.51-1.232.818-3.232 1.214-4.64.291-.51-.337-3.495-2.093-.965-7.325 1.59-3.292 4.939-5.575 5.694-6.06 1.847-1.185 3.166-1.748 4.55-1.642.705.052.807.33 1.33.317.299-.352.464-.61.954-.747.659-.106 1.441.449 1.742 1.5.3 1.051-.483 2.74-.68 3.551.001 0 .697 10.532-3.584 18.262zM34.4 21.566c-1.191.023-1.094.887-1.344 1.644-.241.754-2.295 7.535-2.556 8.75-.26 1.216-.44 2.308-.063 3.977.384 1.705 2.33 1.207 2.536.907.95-1.337.108-1.731.078-2.666-.025-.976.241-2 .442-3.322.071-.472.215-2.615.285-2.906.08-.314.75-2.7 1.717-4.152.414-.622.778-2.264-1.095-2.231zm3.244-7.93c-.163-.337-1.05-1.397-2.206-.574-1.722 1.225.263 2.918.582 3.748.318.83 2.039 1.526 1.788-.112-.037-.236.31-2.087-.164-3.062zm19.005 7.987c-.56.126-1.678.352-2.381.472-1.066.18-1.646.852-1.606 1.533.04.685.274 1.008 1.224.827.86-.163 1.593-.898 2.345-.901 0 0-1.553 6.58-1.655 7.462-.101.882-.56 3.294.383 4.663 2.099 3.047 6.297-.446 6.69-.826.288-.281 2.94-2.619 3.84-4.493.455-.952-.32-1.162-.846-1.356-.525-.194-1.634.141-1.79.837-.337 1.511-4.01 5.588-5.827 4.771-2.143-.965 1.722-11.778 1.722-11.778.46-.207 2.795-.812 5.005-1.383 2.55-.657 10.342-2.203 8.583-4.543-.86-1.144-3.085.599-3.84.963-2.7 1.302-9.311 3.213-9.311 3.213s.858-3.887 1.136-4.653c.32-.876 1.496-1.45 1.668-3.01.202-1.814-1.973-2.64-3.011-.654-.215.408-.511 1.533-.54 1.562-.28.269-2.68 1.232-5.04 2.363-.745.357-4.97 1.901-4.978 1.89.006-.031 1.283-4.102 2.763-7.498.985-2.258 2.372-5.4 4.83-6.039 2.302-.596 1.217 1.814 2.252 2.44 1.314.794 2.12-.207 2.321-1.165.158-.75.116-4.686-3.865-4.292-3.789.375-6.807 6.187-10.54 17.048-.04.043-3.005 1.968-5.463 2.463-1.216.244-1.753.35-1.914.785-.133.35-.161.73-.082 1.096.08.365.263.7.528.962.7.84 6.174-2.8 6.168-2.776-.111.149-4.602 17.344-4.638 17.545-.259 1.432-1.706 5.208-1.628 6.922.043.882.387 2.717 1.65 2.635 2.646.175 2.135-3.56 1.958-4.245-.37-1.417 1.53-10.783 3.235-17.685.348-1.408 1.062-3.718 1.186-4.267.072-.396.235-.77.476-1.09.241-.321.554-.58.913-.758 0 0 9.51-4.505 9.598-4.479 0 .01-1.519 5.44-1.519 5.44zm65.149 8.596c1.842 1.75 3.673.64 4.615-.123 2.891-2.336 8.851-12.983 8.851-12.983.034.356-2.483 12.567.882 13.921 2.158.867 7.181-3.44 7.756-3.839 3.316-2.3 1.284-3.142.644-3.142-1.71-.005-1.402 1.24-1.87 1.798-.771.923-3.872 4.13-5.39 3.278-.818-.46-.616-3.173-.535-3.798.478-6.464.606-7.631.981-9.118.209-.826 1.211-.804 1.825-.917 8.28-1.538 9.765-.918 10.798-1.424.819-.405.966-2.149-.197-2.524-.532-.168-1.206.24-2.424.696-1.213.45-7.323 1.808-8.221 1.942-.828.12-1.005.004-1.206-.257-.198-.258.183-3.29 1.37-5.805.516-1.088.53-2.753-1.156-2.882-.694-.05-1.283.149-1.547.743-.262.59-.767 5.976-.886 6.335-.119.354-.759.63-.9 1.245-.141.615-.043.998-.455 1.137-.416.142-1.555.252-2.024.365-.493.12-.785 1.069-.803 1.617-.019.549.861.223 1.286.16.485-.07 1.669-.665.826.355-.319.39-6.067 9.42-8.312 11.279-2.582 2.137-2.398-2.065-2.333-2.78.39-4.285 2.255-7.16 2.523-7.842.264-.686.375-2.717-1.827-2.268-.257.065-.493.194-.686.377-.193.182-.336.41-.417.663-.004.015-.006.03-.006.045-.222 2.003-4.045 11.005-1.162 13.747v-.001zm3.356-20.965c.679 1.33 1.838.859 2.035.516.199-.34.357-.411.919-.639 1.032-.414-.75-2.276-2.445-1.75-.109.047-.203.124-.271.222-.069.097-.109.212-.117.331.046.39-.351.875-.121 1.32zm-20.786 10.448s1.112-.963 1.583-.938c.219.01-.162.619.602.995.406.202-.444 2.919-2.124 5.527-3.859 5.988-5.688 5.718-5.847 3.9-.326-3.795 4.667-8.711 5.786-9.484zm1.959 4.91s-.014 1.29.086 2.393c.089.99.426 3.062.773 3.732.538 1.032 1.678 1.032 2.556.527 1.149-.664.606-1.905.168-2.319-.382-.363-1.311-.83-1.592-2.389-.165-.922-.03-5.08.242-6.535.282-1.334.703-2.636 1.255-3.882.458-.908 3.216-6.106 3.256-7.85.017-.762-.763-1.394-2.039-1.262-1.275.132-1.592 1.159-1.594 1.831-.004.67-1.354 5.38-1.424 5.595-.112.322-.333 2.25-.992 2.255-1.467-.026-2.898.456-4.055 1.364-.635.484-2.793 2.171-4.038 3.931-.566.797-3.135 4.117-2.845 8.08.265 3.603 2.773 2.965 3.493 2.85 3.274-.529 5.576-5.94 5.909-6.604.59-1.178.391-.861.841-1.718zM93.43 11.445c-.24.297-.18 1.237.342 1.723.393.366.448.434.461.73.022.546.37.577.904.57.653-.01 1.188-.466 1.254-1.394.066-.927-.828-1.72-1.548-1.9-.72-.178-1.102-.116-1.413.271z"/>
</svg>
