<?xml version="1.0" encoding="utf-8"?>
<!-- Generator: Adobe Illustrator 21.1.0, SVG Export Plug-In . SVG Version: 6.00 Build 0)  -->
<svg version="1.1" id="Layer_1" xmlns="http://www.w3.org/2000/svg" xmlns:xlink="http://www.w3.org/1999/xlink" x="0px" y="0px"
	 viewBox="0 0 18 18" style="enable-background:new 0 0 18 18;" xml:space="preserve">
<style type="text/css">
	.st0{fill:#4285F4;}
	.st1{fill:#34A853;}
	.st2{fill:#FBBC05;}
	.st3{fill:#EA4335;}
	.st4{fill:none;}
</style>
<g id="logo_googleg_48dp" transform="translate(15.000000, 15.000000)">
	<path id="Shape" class="st0" d="M2.6-5.8c0-0.6-0.1-1.3-0.2-1.8H-6v3.5h4.8C-1.4-3-2-2.1-3-1.4v2.3H0
		C1.7-0.7,2.6-3.1,2.6-5.8L2.6-5.8z"/>
	<path id="Shape_1_" class="st1" d="M-6,3c2.4,0,4.5-0.8,6-2.2L-3-1.4c-0.8,0.5-1.8,0.9-3,0.9
		c-2.3,0-4.3-1.6-5-3.7h-3V-2C-12.6,1-9.5,3-6,3L-6,3z"/>
	<path id="Shape_2_" class="st2" d="M-11-4.3c-0.2-0.5-0.3-1.1-0.3-1.7s0.1-1.2,0.3-1.7V-10h-3
		c-0.6,1.2-1,2.6-1,4s0.3,2.8,1,4L-11-4.3L-11-4.3z"/>
	<path id="Shape_3_" class="st3" d="M-6-11.4c1.3,0,2.5,0.5,3.4,1.3L0-12.7C-1.5-14.1-3.6-15-6-15
		c-3.5,0-6.6,2-8,5l3,2.3C-10.3-9.8-8.3-11.4-6-11.4L-6-11.4z"/>
	<path id="Shape_4_" class="st4" d="M-15-15H3V3h-18V-15z"/>
</g>
</svg>
