<?xml version="1.0" encoding="utf-8"?>
<!-- Generator: Adobe Illustrator 21.1.0, SVG Export Plug-In . SVG Version: 6.00 Build 0)  -->
<svg version="1.1" id="Layer_1" xmlns="http://www.w3.org/2000/svg" xmlns:xlink="http://www.w3.org/1999/xlink" x="0px" y="0px"
	 viewBox="0 0 152.4 108" style="enable-background:new 0 0 152.4 108;" xml:space="preserve">
<style type="text/css">
	.st0{fill:none;}
	.st1{fill:#FF5F00;}
	.st2{fill:#EB001B;}
	.st3{fill:#F79E1B;}
</style>
<g>
	<rect class="st0" width="152.4" height="108"/>
	<g id="XMLID_23_">
		<rect x="60.4" y="25.7" class="st1" width="31.5" height="56.6"/>
		<path id="XMLID_35_" class="st2" d="M62.4,54c0-11.5,5.4-21.7,13.7-28.3C70,20.9,62.3,18,53.9,18c-19.9,0-36,16.1-36,36
			c0,19.9,16.1,36,36,36c8.4,0,16.1-2.9,22.2-7.7C67.8,75.7,62.4,65.5,62.4,54z"/>
		<path class="st3" d="M134.4,54c0,19.9-16.1,36-36,36c-8.4,0-16.1-2.9-22.2-7.7c8.4-6.6,13.7-16.8,13.7-28.3s-5.4-21.7-13.7-28.3
			C82.3,20.9,90,18,98.4,18C118.3,18,134.4,34.1,134.4,54z"/>
		<path class="st3" d="M131,76.3v-1.2h0.5v-0.2h-1.2v0.2h0.5v1.2H131z M133.3,76.3v-1.4h-0.4l-0.4,1l-0.4-1h-0.4v1.4h0.3v-1.1
			l0.4,0.9h0.3l0.4-0.9v1.1H133.3z"/>
	</g>
</g>
</svg>
