<?xml version="1.0" encoding="utf-8"?>
<!-- Generator: Adobe Illustrator 21.1.0, SVG Export Plug-In . SVG Version: 6.00 Build 0)  -->
<svg version="1.1" id="Layer_1" xmlns="http://www.w3.org/2000/svg" xmlns:xlink="http://www.w3.org/1999/xlink" x="0px" y="0px"
	 viewBox="0 0 118.6 74.5" style="enable-background:new 0 0 118.6 74.5;" xml:space="preserve">
<style type="text/css">
	.st0{fill:#7673C0;}
	.st1{fill:#EB001B;}
	.st2{fill:#00A1DF;}
</style>
<g id="_Group_">
	<rect x="43.5" y="9" class="st0" width="31.5" height="56.6"/>
	<path id="_Path_" class="st1" d="M45.5,37.3c0-11,5.1-21.5,13.8-28.3C43.6-3.3,21-0.6,8.7,15c-12.3,15.6-9.6,38.3,6.1,50.5
		c13.1,10.3,31.4,10.3,44.5,0C50.6,58.8,45.5,48.3,45.5,37.3z"/>
	<path class="st2" d="M114.1,59.6v-1.1h0.5v-0.2h-1.2v0.2h0.5v1.2L114.1,59.6z M116.4,59.6v-1.4H116l-0.4,1l-0.4-1h-0.4v1.4h0.3v-1
		l0.4,0.9h0.3l0.4-0.9v1.1L116.4,59.6z"/>
	<path class="st2" d="M117.5,37.3c0,19.9-16.1,36-36,36c-8.1,0-15.9-2.7-22.2-7.7C74.9,53.3,77.6,30.7,65.3,15
		c-1.8-2.3-3.8-4.3-6.1-6.1C74.9-3.3,97.5-0.6,109.8,15C114.8,21.4,117.5,29.2,117.5,37.3L117.5,37.3z"/>
</g>
</svg>
