<?xml version="1.0" encoding="iso-8859-1"?>
<!-- Generator: Adobe Illustrator 19.0.0, SVG Export Plug-In . SVG Version: 6.00 Build 0)  -->
<svg version="1.1" id="Layer_1" xmlns="http://www.w3.org/2000/svg" xmlns:xlink="http://www.w3.org/1999/xlink" x="0px" y="0px"
	 viewBox="0 0 512 512" style="enable-background:new 0 0 512 512;" xml:space="preserve" width="28" height="28" fill="#b8b8b8">
<g>
	<g>
		<path d="M415.288,177.495h-39.822v-58.029C375.466,53.593,321.874,0,256,0c-65.874,0-119.466,53.593-119.466,119.466v58.029
			H96.712c-13.195,0-23.893,10.698-23.893,23.893v286.719c0,13.195,10.698,23.893,23.893,23.893h318.576
			c13.195,0,23.893-10.698,23.893-23.893V201.388C439.181,188.193,428.484,177.495,415.288,177.495z M184.32,119.466
			c0-39.524,32.157-71.68,71.68-71.68s71.68,32.156,71.68,71.68v58.029H184.32V119.466z M323.667,327.793L255.97,395.49
			c-4.666,4.666-10.781,6.998-16.894,6.998s-12.23-2.334-16.894-6.998l-33.849-33.849c-9.331-9.329-9.331-24.459,0-33.79
			c9.33-9.329,24.459-9.329,33.79,0l16.955,16.955l50.803-50.803c9.33-9.33,24.459-9.33,33.79,0
			C333,303.334,333,318.463,323.667,327.793z"/>
	</g>
</g>
</svg>